<?xml version="1.0" encoding="UTF-8"?>
<svg id="_レイヤー_1" data-name="レイヤー 1" xmlns="http://www.w3.org/2000/svg" viewBox="0 0 448.18 388.1">
  <path d="M394.33,109.11c-23.25-34.42-53.49-64.14-92.28-80.46-45.53-19.15-103.04-20.14-149.13-2.35-2.53.98-18.66,7.72-19.19,9.11-.21.78,1.71,1.54,2.09,1.59,2.12.3,6.02-.33,8.6.04,4.17.6,8.41,2.89,12.59,3.61l-4.1-3.88-.71-2.04c11.06-8.03,24.4-9.16,37.33-11.54,7.34-1.35,15.15-4.51,22.71-3.07.66.89-6.98,7.6-7.23,8.54-.41,1.53.99,3.67,2.25,4.43,2.55,1.52,4.85.82,7.38,1.29,8.78,1.64,21.59,5.6,18.64,17.04-.96,1.22-7.57.35-9.35.13-2.77-.34-13.54-2.49-15.22-4.18-1.1-1.11-3.86-11.02-6.73-7.17-3.14,4.21,5.31,8.68-1.96,11.27-4.81,1.71-17.07.71-19.94,4.7-.46.64-.98,1.49-.49,2.26l27.87,18.73c.94,0,1.03-.79,1.27-1.47.73-1.99,2.01-8.52,2.13-10.66.24-4.1-1.69-8.98-1.63-13.02l.58-.35c3.67-1.23,10.74.13,13.99,2.28,2.57,1.69,3.68,5.45,7.6,3.79,2.79-1.18.4-3.82,5.69-2.47,5.78,1.47,18.49,6.57,21.9,11.41,3.06,4.33.93,3.54-.75,6.49-.68,1.19-1.05,4.02-1.58,4.46-2.39,2-19.27,2.88-19.31,4.3l21.17,4.74c2.5,3.78-9.35,11.45-11.27,10.94-.36-.09-1.09-.73-1.12-1.07l1.7-4.34c-7.75,1.97-11.89,9.32-15.3,15.95-3.66,7.11-6.14,16.72-12.31,21.91-2.72,2.29-8.99,5.51-10.05,9.12-.3,1.01.04,3-.63,3.48l-106.19-.21c-.88-.69-2.88-7.95-3.25-9.53-3.92-16.89.07-19.33,4.3-34.23,2.19-7.73,2.95-15.86,5.16-23.59-1.82-.52-3.91,1.09-5.51-.53-.73-3.23,5.86-9.89,6.38-14.12.6-4.86-2.76-5.96-6.5-3.76-15.9,9.35-30.39,27.39-41.3,42.22-1.64,2.23-3.33,4.55-4.65,6.99-.59.12-.5-.18-.46-.68.21-2.78,7.25-14.33,9.13-17.35,69.54-111.82,235.22-118.89,311.19-9.95,4.98,7.14,13.51,20.54,16.16,28.57.3.9.48,1.65.35,2.61Z"/>
  <path d="M358.96,245.12c1.88,2.1,1.8,5.29,1.54,7.93-1.6,16.34-24.77,53.87-35.35,67.33-6.39,8.13-15.54,15.45-23.46,22.18-11.22,9.53-22.85,18.64-34.69,27.37.5.69.63.62,1.38.51,3.65-.57,8.22-1.82,11.86-2.78,48.18-12.79,86.21-45.08,113.87-85.58.2.96-.64,2.61-1.06,3.51-29.74,64.76-104.58,104.82-174.68,102.39-66.48-2.3-133.86-42.91-160.03-105.14-.59-1.4-1.36-2.84-1.29-4.41,5.94,7.96,11.46,16.28,17.81,23.95,35.48,42.88,84.56,69.04,140.79,71.89,5.21.26,17.6.76,22.25-.11,2.99-.56,2.39-3.33,3.21-5.92,4.25-13.44,10.39-26.76,14.14-40.17,2.75-9.83,3.36-14.8-3.99-22.72-.62-.67-4.58-3.31-3.89-4.09,16.11-1.94,23.71-20.5,13.61-33.47-7.08-9.1-19.65-9.44-28.45-2.59-1.95-.84-3.45-2.42-5.39-3.28s-6.88-1.18-7.18-2.89c-.17-.96,2.32-9.83,2.91-11.25.37-.91.81-1.9,1.45-2.66h134.64ZM315.71,260.75c-23.02,3.58-19.86,43.06,6.22,40.45,25.7-2.57,22.38-44.91-6.22-40.45ZM283.05,298.62l.97-.03c2.11,2.35,6.7,2.05,9.69,1.78,8.83-.8-.59-11.63-1.63-15.81-.07-1.2,1.94-2.82,2.66-4.15,4.01-7.32-.06-17.92-8.82-18.86-1.94-.21-12.21-.33-13.61.09s-2.01,3.38-2.14,4.71c-.54,5.43-.81,25.56.2,30.37.37,1.75,1.35,3.3,3.25,3.6,2.3.36,8.32.61,9.41-1.7Z"/>
  <path d="M369.46,194c.45.29.59.63.68,1.14.32,1.74.14,6.7,0,8.67-2.49,33.17-40.64,47.44-65.72,26.94-18.31-14.97-21.96-42.12-7.94-61.35,17.21-23.62,52.86-24.21,69.91-.26l-8.8,8.33c-1.94-1.39-3.06-3.54-4.78-5.14-7.93-7.41-18.94-10.59-29.45-7.08-.58.73.61,1.26.69,2.08.06.58-.43,1.25-.35,1.76.15.92,2.38,1.69,2.18,3.02-1.54,1.36-5.74-6.56-6.36-.74.33,1.16,2.29.45,3.17.97.37.21,2.23,2.83,3.14,3.27.48,1.35-.72,1-1.04,1.54-2.67,4.5,1.41,4.11,1.55,8.2-.41.48-3.68-2.81-4.43-3.1-.52-.2-1.75-.48-1.5.58,1.78.52,1.11,1.96,1.77,2.79.45.56,1.37.45,1.74.76.44.37.64,1.65,1.03,2.28.81,1.3,1.85.48,1.35,3.73-.63,4.09-4.67,3.42-4.99,7.1l-.45-2.28c-.94-.13-1.72.79-1.84,1.62-.49,3.37,7.84,4.63,2.51,8.86h-.64c-.27-1.74-2.39-1.95-3.85-2.3-2.81,4.21,4.38,4.66,5.64,8.02-.68.97-1.23.74-2.15.34-1.38-.6-5.45-4.35-5.56-5.84-.05-.65.34-1.27.22-2.05-.24-1.55-1.47-3.43-1.86-5.02l-2.07-.16c-.22-1.68-2.36-4.81-4.22-4.32-.66.17-3.69,3.72-3.88,4.37-.66,2.31-.09,7.17.87,9.43,2.41,5.65,9.41,12.11,14.91,14.76,1.95.94,7.87,3.1,9.79,2.79.29-.05,4.56-1.73,4.77-1.88,2.39-1.7,4.02-2.1,5.95-3.4s1.67-2.7,5.14-1.93l-.9,1.14c1.88,2.26,3.09-1.88,3.65-3.42l1.59,2.26c1.99.14,8.61-11.46,7.08-14.13h-19.85l-.68-.68v-10.95l.68-.68h33.32Z"/>
  <path d="M176.86,238.73c-.33-.1-.71-.74-.71-1.14l40.88-89.22,1.16,1.11,38.76,88.14c.09.38-.48,1.11-.68,1.11h-11.87c-.3,0-1.33-.81-1.5-1.24l-8.77-19.53-34.84-.15c-.73.25-2.08,3.43-2.52,4.33-2.13,4.38-3.94,10.17-6.28,14.26-.38.66-1.48,2.34-2.23,2.34h-11.41ZM205.15,205.41h23.28l.49-.93c-2.44-5-4.33-10.26-6.57-15.35-1.11-2.53-3.18-8.23-4.45-10.15-.31-.47-.68-1.03-1.33-.96l-11.9,26.46.49.93Z"/>
  <path d="M12.78,153.38v55.91c0,.62.91,4.81,1.15,5.7,5.06,18.66,33.46,17.3,35.36-4.79,1.5-17.48-1.12-37.15-.01-54.75.05-.73.38-1.36.48-2.07h12.78l-.46,59.55c-2.75,27.02-38.14,36.79-55.21,15.97-2.74-3.35-6.86-11.72-6.86-15.96v-59.56h12.78Z"/>
  <path d="M401.63,153.38h45.87l.68.68v10.5l-.68.68h-32.4l-.68.68v19.17l.68.68h31.49l.68.68v10.95l-.68.68h-31.49l-.68.68v26.93l.68.68h32.4l.68.68v10.5c0,.08-1.06,1.14-1.14,1.14h-44.73l-.68-.68v-84.66Z"/>
  <path d="M144.68,153.38v11.18l-.68.68h-17.8l-.68.68v71.65c0,.08-1.06,1.14-1.14,1.14h-10.95l-.68-.68v-71.65c0-.08-1.06-1.14-1.14-1.14h-17.8l-.68-.68v-10.5l.68-.68h50.89Z"/>
  <path d="M241.31,264.39c18.78-3.84,28,19.56,13.78,30.21s-31.76-6.47-23.47-22.1c1.63-3.08,6.22-7.39,9.7-8.1ZM243.6,270.33c-11.99,2.04-9.62,22.66,3.04,21.31,13.35-1.42,11.51-23.78-3.04-21.31Z"/>
  <path d="M158.83,296.69l-5.94-.22c-1.52-1.73-1.14-5.88-3.84-6.2-1.49-.17-9.33-.22-10.44.11-1.46.44-2.27,4.87-3.13,6.23l-5.86.07,11.49-31.87c1.73.08,5.18-.73,6.27.65l11.45,31.21ZM144.67,274.79c-1.05-.22-.73.11-1.02.58-.54.87-3.22,7.69-3.05,8.26.4,1.36,5.94.74,7.27.28l-3.2-9.12Z"/>
  <path d="M179.14,264.74c.83.07,3.1.45,3.9.67,5.72,1.53,7.01,10.71,3.42,14.87-2.33,2.69-6.93,3.25-10.28,3.18l-.43,13.04-5.19.22c-.3-.09-.77-1.03-.77-1.16v-29.67c0-.15.6-.69.46-1.14,2.89.18,6.05-.25,8.9,0ZM176.92,270.72c-1.3.43-.75,4.69-.55,5.92,2.89,1.91,7.84-1.06,5.69-4.32-.67-1.02-4.04-1.96-5.13-1.6Z"/>
  <path d="M206.29,296.69c-1.89-.26-4.48.69-5.93-.68v-30.58l.68-.68h9.13c.63,0,3.94.91,4.65,1.28,6.58,3.35,5.57,14.59-2.14,16.76-2.18.61-4.71.29-6.4,1.36v12.55ZM206.81,277c.28.17,2.83.16,3.38.09,3.01-.41,4.34-4.55.76-5.83-5.16-1.84-5.35,1.56-4.15,5.75Z"/>
  <path d="M108.28,270.79c-1.01.96-.06,2.59.61,3.51,2.87,3.99,9.86,6.47,10.65,12.16,1.22,8.78-6.93,13.84-14.52,9.96-1.61-.83-5.67-4.62-4.15-6.34.63-.71,3.78-2.69,4.69-2.09,1.71,1.13,3.03,5.66,6.71,2.99,4.67-3.39-5.58-9.67-7.76-12.3-9.71-11.74,7.23-20.58,14.53-9.59l-3.85,3.84c-.76.13-4.26-4.67-6.9-2.14Z"/>
  <path d="M284.11,264.74c10.22,1.12,11.57,13.72,3,18.07.33,2.17,7.43,12.78,6.36,13.87l-5.93-.23-7.31-12.55v11.64c0,.13-.47,1.06-.77,1.16l-5.09-.09c-.07-.33-.53-.9-.53-1.07v-29.67c0-.15.6-.69.46-1.14,3.14.25,6.73-.34,9.81,0ZM280.23,277.07c8.46,1.56,8.65-7.13.43-6.2l-.43,6.2Z"/>
  <path d="M315.71,264.39c23.87-4.45,27.05,30.29,6.62,33.09-22.01,3.01-24.87-29.69-6.62-33.09ZM317.53,270.33c-11.52,1.96-9.74,22.33,3.03,21.3,13.31-1.07,11.86-23.83-3.03-21.3Z"/>
  <path d="M250.41,286.04c-1.69,1.73-4.29,2.33-6.57,1.62-7.49-2.34-5.62-15.21,3.27-13.77,5.19.85,6.6,8.74,3.29,12.14Z"/>
  <path d="M317.99,273.98c10.01-1.85,11.03,12.83,2.6,14.02s-9.7-12.71-2.6-14.02Z"/>
</svg>